<svg xmlns="http://www.w3.org/2000/svg" viewBox="0 0 177.59 92.23">
  <defs>
    <style>
      .cls-1 {
        fill: #1d70b7;
      }

      .cls-2 {
        fill: #f4c631;
      }

      .cls-3 {
        fill: #3c3c3b;
      }
    </style>
  </defs>
  <title>Logo</title>
  <g id="Livello_2" data-name="Livello 2">
    <g id="Livello_1-2" data-name="Livello 1">
      <g>
        <g>
          <path class="cls-1" d="M33.4,32.17c.35.29.8.69,1.34,1.17a16.61,16.61,0,0,0,1.88,1.47,15.64,15.64,0,0,0,3.13,1.67,9.06,9.06,0,0,0,3.25.61,8.61,8.61,0,0,0,2.67-.33,4.66,4.66,0,0,0,1.7-.94,3.29,3.29,0,0,0,.89-1.36,5.23,5.23,0,0,0,.28-1.64,2.49,2.49,0,0,0-.72-1.74,7.54,7.54,0,0,0-1.77-1.36,14.75,14.75,0,0,0-2.21-1q-1.14-.43-2-.72a45.68,45.68,0,0,1-6.51-2.86,20.31,20.31,0,0,1-4.64-3.39,12.56,12.56,0,0,1-2.77-4.09,12.59,12.59,0,0,1-.89-5,11.65,11.65,0,0,1,1.2-5.25,11.53,11.53,0,0,1,3.36-4A15.56,15.56,0,0,1,36.84.87,23.38,23.38,0,0,1,43.65,0a22.94,22.94,0,0,1,5.43.68,21,21,0,0,1,5.09,2.07c.7.42,1.37.86,2,1.31a19.46,19.46,0,0,1,1.65,1.3A8.09,8.09,0,0,1,59,6.55a1.7,1.7,0,0,1,.41,1,1.47,1.47,0,0,1-.2.74,5,5,0,0,1-.61.78l-4.8,5a1.54,1.54,0,0,1-1.06.52,1.37,1.37,0,0,1-.79-.25c-.24-.17-.5-.38-.8-.63l-.27-.25c-.41-.36-.87-.73-1.37-1.1a12.85,12.85,0,0,0-1.63-1A11.37,11.37,0,0,0,46,10.57a7.22,7.22,0,0,0-2-.31,10.61,10.61,0,0,0-1.93.16,5.57,5.57,0,0,0-1.6.53,3,3,0,0,0-1.09,1,2.82,2.82,0,0,0,0,3,4.21,4.21,0,0,0,1.3,1.19,11.07,11.07,0,0,0,2.15,1c.85.33,1.85.68,3,1.07,2.2.74,4.21,1.52,6.06,2.33a20.39,20.39,0,0,1,4.79,2.86,11.81,11.81,0,0,1,3.12,3.93A12.23,12.23,0,0,1,61,32.84,13.65,13.65,0,0,1,59.5,39a14.11,14.11,0,0,1-3.88,4.71,17.94,17.94,0,0,1-5.75,3,22.71,22.71,0,0,1-7.1,1,20.36,20.36,0,0,1-7-1.33A27.09,27.09,0,0,1,29.34,43a17.06,17.06,0,0,1-2.08-1.79c-.57-.59-1-1.06-1.35-1.42l-.09-.09a.18.18,0,0,0-.06-.08l-.06,0a.17.17,0,0,0-.07-.09l-.06,0a2.23,2.23,0,0,1-.7-1.26A1.77,1.77,0,0,1,25.59,37L31,31.87a2,2,0,0,1,1.06-.46,1.2,1.2,0,0,1,.59.19A6.22,6.22,0,0,1,33.4,32.17Z"/>
          <path class="cls-1" d="M97.66,14.42a13.61,13.61,0,0,0-3.38-1.76A11.82,11.82,0,0,0,90.43,12,11.22,11.22,0,0,0,82,15.58a12.48,12.48,0,0,0-2.44,3.92,13.43,13.43,0,0,0-.91,4.8,13.09,13.09,0,0,0,.84,4.79A12,12,0,0,0,81.86,33a11.26,11.26,0,0,0,8.39,3.66,15.67,15.67,0,0,0,2.16-.14q1.07-.15,2.28-.39L94.76,28a1.39,1.39,0,0,1,.35-1,1.24,1.24,0,0,1,1-.38l8.46.06a1.71,1.71,0,0,1,1,.38,1.18,1.18,0,0,1,.53,1L106,43.13a1.59,1.59,0,0,1-.92,1.36,17.1,17.1,0,0,1-3.24,1.69,26.36,26.36,0,0,1-3.72,1.15,34.54,34.54,0,0,1-3.9.67,33.92,33.92,0,0,1-3.84.21,23.6,23.6,0,0,1-6.33-.89,23.32,23.32,0,0,1-5.65-2.44,23.83,23.83,0,0,1-4.78-3.75,24.17,24.17,0,0,1-3.68-4.81,23.72,23.72,0,0,1-2.36-5.68,23.85,23.85,0,0,1,2.54-18.33A23.71,23.71,0,0,1,73.88,7.5,23.05,23.05,0,0,1,78.7,3.82a24.8,24.8,0,0,1,5.69-2.35,24,24,0,0,1,13.37.29A23.81,23.81,0,0,1,104,4.81a2,2,0,0,1,.8.83,1.11,1.11,0,0,1-.13,1.16L99.56,14a2.17,2.17,0,0,1-.82.66A1.21,1.21,0,0,1,97.66,14.42Z"/>
          <path class="cls-1" d="M144.36,14.77A13.44,13.44,0,0,0,141,13a11.82,11.82,0,0,0-3.85-.65,11.22,11.22,0,0,0-8.44,3.57,12.48,12.48,0,0,0-2.44,3.92,13.43,13.43,0,0,0-.91,4.8,13.09,13.09,0,0,0,.84,4.79,11.9,11.9,0,0,0,2.39,3.92A11.14,11.14,0,0,0,132.23,36,11.56,11.56,0,0,0,137,37a15.67,15.67,0,0,0,2.16-.14c.72-.1,1.47-.23,2.29-.39l.06-8.15a1.43,1.43,0,0,1,.35-1,1.28,1.28,0,0,1,1-.37l8.47.06a1.74,1.74,0,0,1,1,.38,1.17,1.17,0,0,1,.52,1l-.11,15a1.58,1.58,0,0,1-.91,1.36,16.6,16.6,0,0,1-3.25,1.68,26.67,26.67,0,0,1-3.71,1.16,34.72,34.72,0,0,1-3.91.67,31.69,31.69,0,0,1-3.84.2,23.08,23.08,0,0,1-6.32-.89,22.82,22.82,0,0,1-5.66-2.43,24.09,24.09,0,0,1-8.45-8.57A23.25,23.25,0,0,1,114.29,31a24.41,24.41,0,0,1,.09-12.66,23.66,23.66,0,0,1,2.45-5.67,23.31,23.31,0,0,1,3.75-4.81,22.78,22.78,0,0,1,4.83-3.68,24.19,24.19,0,0,1,5.69-2.35A22.87,22.87,0,0,1,137.44,1a23.41,23.41,0,0,1,7,1.1,24.19,24.19,0,0,1,6.21,3,2.12,2.12,0,0,1,.8.83,1.11,1.11,0,0,1-.13,1.17l-5.09,7.24a2.45,2.45,0,0,1-.81.66A1.22,1.22,0,0,1,144.36,14.77Z"/>
        </g>
        <path class="cls-2" d="M153.24,56.82a117.78,117.78,0,0,0-16-3.75c-.43-.08-.85-.15-1.27-.2q-3.09-.52-6.2-.93c-2.9-.38-5.8-.69-8.71-.95l-.39,0-2.9-.24c-1.88-.14-3.75-.27-5.63-.35L111,50.29c-1.27-.06-2.55-.12-3.82-.15-1,0-1.91-.07-2.87-.09C102.24,50,100.13,50,98,50H95.33c-1.66,0-3.31,0-5,.08h0l-1.76,0-.87,0c-1.66,0-3.32.11-5,.18L80,50.38c-2.09.11-4.17.23-6.25.39l-2.25.17-.59.05c-1.39.11-2.77.24-4.14.38-2.05.19-4.1.42-6.13.68-1,.11-1.93.24-2.9.37-.54.08-1.09.15-1.63.24q-4,.57-7.92,1.3l-.52.1c-2.53.48-5,1-7.57,1.61S34.83,57,32.21,57.79c-1.31.41-2.61.83-3.91,1.29s-2.59,1-3.86,1.51a43,43,0,0,1,7-4.66,79.29,79.29,0,0,1,7.61-3.65c1.76-.74,3.53-1.42,5.33-2.05l.9-.31c3.22-1.1,6.49-2,9.78-2.86q2.82-.69,5.65-1.26c.86-.17,1.71-.34,2.57-.49l.73-.12c1.32-.25,2.64-.46,4-.65q3.27-.49,6.56-.84c1.1-.12,2.21-.23,3.32-.31s2.45-.2,3.67-.28l3-.17c.92,0,1.85-.08,2.78-.1l1,0,1.89,0h0c.94,0,1.87,0,2.8,0s2,0,3,0c1.26,0,2.5.06,3.75.11s2.22.1,3.34.17c2.26.13,4.52.31,6.78.56,1.34.13,2.68.29,4,.47.94.12,1.87.25,2.8.39l2.88.47,2.14.39c3.56.68,7.12,1.51,10.63,2.51q2.85.79,5.64,1.76l.44.16c2.51.89,5,1.87,7.38,3A48.89,48.89,0,0,1,153.24,56.82Z"/>
        <g>
          <path class="cls-1" d="M2.93,73c.13.1.28.24.47.41s.41.33.65.5a5.38,5.38,0,0,0,1.09.56,3.06,3.06,0,0,0,1.13.21,3,3,0,0,0,.91-.12,1.72,1.72,0,0,0,.59-.33,1.28,1.28,0,0,0,.31-.47,1.79,1.79,0,0,0,.09-.57.87.87,0,0,0-.25-.6,3.06,3.06,0,0,0-.62-.47,6.71,6.71,0,0,0-.77-.35l-.68-.24a15.17,15.17,0,0,1-2.26-1A6.8,6.8,0,0,1,2,69.36,4.36,4.36,0,0,1,1,68a4.54,4.54,0,0,1-.32-1.72A3.93,3.93,0,0,1,2.24,63,5.61,5.61,0,0,1,4,62.14a7.86,7.86,0,0,1,2.35-.32A7.68,7.68,0,0,1,8.27,62a7.33,7.33,0,0,1,1.77.7c.24.15.47.29.69.45a5.86,5.86,0,0,1,.58.45,2.89,2.89,0,0,1,.39.4.63.63,0,0,1,.14.34.43.43,0,0,1-.07.25,1.1,1.1,0,0,1-.21.27L9.92,66.65a.5.5,0,0,1-.37.19.44.44,0,0,1-.27-.09L9,66.54l-.1-.09c-.14-.12-.3-.25-.48-.38s-.36-.24-.56-.35a4.47,4.47,0,0,0-.64-.25,2.19,2.19,0,0,0-.67-.11,4.63,4.63,0,0,0-.67.06,2.09,2.09,0,0,0-.55.19A1.14,1.14,0,0,0,5,66a.92.92,0,0,0-.13.51A.89.89,0,0,0,5,67a1.39,1.39,0,0,0,.45.41,4.65,4.65,0,0,0,.74.36l1,.36c.76.25,1.46.51,2.1.79a7,7,0,0,1,1.66,1,4,4,0,0,1,1.09,1.35,4.23,4.23,0,0,1,.4,1.9,4.76,4.76,0,0,1-1.82,3.79,6,6,0,0,1-2,1,7.76,7.76,0,0,1-2.45.37,6.86,6.86,0,0,1-2.43-.44A9.47,9.47,0,0,1,1.56,76.7a6,6,0,0,1-.73-.62L.37,75.6l0,0s0,0,0,0,0,0,0,0,0,0,0,0l0,0A.73.73,0,0,1,0,75.05a.6.6,0,0,1,.25-.41l1.86-1.77a.7.7,0,0,1,.36-.17.47.47,0,0,1,.21.07A2.37,2.37,0,0,1,2.93,73Z"/>
          <path class="cls-1" d="M19.59,62.58a.37.37,0,0,1,.07-.14,1,1,0,0,1,.15-.14.77.77,0,0,1,.18-.1.58.58,0,0,1,.18,0h2.75a.43.43,0,0,1,.31.12,1.92,1.92,0,0,1,.2.19l.27.62,5.64,14.55a.33.33,0,0,1,0,.35.49.49,0,0,1-.4.13H25.81a.69.69,0,0,1-.38-.09.57.57,0,0,1-.21-.31l-.42-1.09c-.13-.36-.27-.72-.41-1.09h-5.7l-.42,1.09c-.14.36-.27.73-.41,1.09a.54.54,0,0,1-.55.4H14.14A.5.5,0,0,1,13.8,78c-.09-.07-.1-.18-.05-.32Zm2,4.6c-.14.37-.28.76-.42,1.18s-.28.85-.41,1.28l-.42,1.28c-.13.41-.27.81-.41,1.17h3.3Z"/>
          <path class="cls-1" d="M31.52,62.64a.52.52,0,0,1,.12-.34.42.42,0,0,1,.35-.14H35.5a.76.76,0,0,1,.32.08.68.68,0,0,1,.28.26l2.7,4.34q1.35,2.13,2.72,4.34V62.57a.51.51,0,0,1,.18-.3.44.44,0,0,1,.3-.11h3.06a.52.52,0,0,1,.37.13.4.4,0,0,1,.15.35V77.7a.41.41,0,0,1-.12.32.57.57,0,0,1-.36.1H41.67a.33.33,0,0,1-.24-.1,1.42,1.42,0,0,1-.23-.25q-1.43-2.37-2.83-4.68t-2.83-4.67v9.23a.42.42,0,0,1-.5.47H32a.45.45,0,0,1-.36-.13.52.52,0,0,1-.11-.33Z"/>
          <path class="cls-1" d="M59.16,66.67A5,5,0,0,0,58,66.06a4.18,4.18,0,0,0-1.34-.21,3.87,3.87,0,0,0-2.9,1.26,4.1,4.1,0,0,0-.84,1.36,4.72,4.72,0,0,0,0,3.31,4.05,4.05,0,0,0,.84,1.35A3.88,3.88,0,0,0,55,74a4,4,0,0,0,1.63.33,6.3,6.3,0,0,0,.75-.05l.79-.14V71.36a.5.5,0,0,1,.12-.34.45.45,0,0,1,.35-.13h2.93a.58.58,0,0,1,.34.13.39.39,0,0,1,.18.34v5.2a.55.55,0,0,1-.31.48,7,7,0,0,1-1.12.59,8.55,8.55,0,0,1-1.27.4,12.79,12.79,0,0,1-1.35.25,12.31,12.31,0,0,1-1.33.08,8.09,8.09,0,0,1-4.15-1.12A8.64,8.64,0,0,1,50.92,76a8.26,8.26,0,0,1-1.28-1.66,7.76,7.76,0,0,1-.83-2,8.2,8.2,0,0,1-.29-2.18A8.33,8.33,0,0,1,48.81,68a8.15,8.15,0,0,1,.83-2,8.32,8.32,0,0,1,1.28-1.67,7.91,7.91,0,0,1,1.66-1.28,8.31,8.31,0,0,1,2-.83,7.93,7.93,0,0,1,2.19-.29,8,8,0,0,1,2.43.36,8.4,8.4,0,0,1,2.16,1,.78.78,0,0,1,.28.29.38.38,0,0,1-.05.4l-1.74,2.52a.73.73,0,0,1-.28.23C59.44,66.8,59.32,66.77,59.16,66.67Z"/>
          <path class="cls-1" d="M65.27,62.64a.52.52,0,0,1,.12-.34.46.46,0,0,1,.36-.14H68.9a.66.66,0,0,1,.35.13.41.41,0,0,1,.18.35v15c0,.31-.18.47-.53.47H65.75a.42.42,0,0,1-.48-.47Z"/>
          <path class="cls-1" d="M72.15,70.16A8.33,8.33,0,0,1,72.44,68a8.15,8.15,0,0,1,.83-2,8.32,8.32,0,0,1,1.28-1.67,8.18,8.18,0,0,1,1.66-1.28,8.39,8.39,0,0,1,2-.83,8.38,8.38,0,0,1,4.37,0,8.39,8.39,0,0,1,2,.83,8.18,8.18,0,0,1,1.66,1.28A8.37,8.37,0,0,1,87.47,66a9,9,0,0,1,.83,2,8.33,8.33,0,0,1,.29,2.19,8.2,8.2,0,0,1-.29,2.18,8.56,8.56,0,0,1-.83,2A8.31,8.31,0,0,1,86.18,76a9,9,0,0,1-1.66,1.28,8.23,8.23,0,0,1-8.31,0A9,9,0,0,1,74.55,76a8.26,8.26,0,0,1-1.28-1.66,7.76,7.76,0,0,1-.83-2A8.2,8.2,0,0,1,72.15,70.16Zm4.16,0a4.53,4.53,0,0,0,.3,1.66,4.05,4.05,0,0,0,.84,1.35,3.86,3.86,0,0,0,1.28.9,4.22,4.22,0,0,0,3.27,0,3.8,3.8,0,0,0,1.29-.9,4.05,4.05,0,0,0,.84-1.35,4.74,4.74,0,0,0,0-3.32,4.1,4.1,0,0,0-.84-1.36,4.1,4.1,0,0,0-4.56-.92,4.05,4.05,0,0,0-2.12,2.28A4.57,4.57,0,0,0,76.31,70.15Z"/>
          <path class="cls-1" d="M91.24,62.66a.52.52,0,0,1,.11-.36.46.46,0,0,1,.36-.14h6.94a5.11,5.11,0,0,1,2.07.42,5.31,5.31,0,0,1,1.69,1.12,5.15,5.15,0,0,1,1.13,1.66,5,5,0,0,1,.22,3.42,5.25,5.25,0,0,1-.55,1.23,5,5,0,0,1-.85,1,5.29,5.29,0,0,1-1.07.81l2.77,5.2c0,.1.11.22.19.35a.76.76,0,0,1,.12.36.31.31,0,0,1-.12.26.45.45,0,0,1-.3.09h-3.69a.51.51,0,0,1-.33-.11.47.47,0,0,1-.18-.29l-2.62-4.91H95.39v4.85c0,.31-.16.46-.49.46H91.71a.54.54,0,0,1-.35-.11.46.46,0,0,1-.12-.35Zm8.41,4.77a1.87,1.87,0,0,0-.12-.65,2.29,2.29,0,0,0-.33-.59,2,2,0,0,0-.52-.45A1.87,1.87,0,0,0,98,65.5l-.57,0-.57,0H95.39v3.94h2.32l.34,0a1.78,1.78,0,0,0,1.49-1.25A2.19,2.19,0,0,0,99.65,67.43Z"/>
          <path class="cls-1" d="M116.4,66.67a4.66,4.66,0,0,0-1.17-.61,4.12,4.12,0,0,0-1.33-.21A3.91,3.91,0,0,0,111,67.11a4.25,4.25,0,0,0-.83,1.36,4.72,4.72,0,0,0,0,3.31,4.2,4.2,0,0,0,.83,1.35,3.89,3.89,0,0,0,2.91,1.24,6.3,6.3,0,0,0,.75-.05l.79-.14V71.36a.55.55,0,0,1,.11-.34.45.45,0,0,1,.36-.13h2.92a.61.61,0,0,1,.35.13.39.39,0,0,1,.18.34v5.2a.57.57,0,0,1-.31.48,7,7,0,0,1-1.12.59,9.07,9.07,0,0,1-1.28.4,11.91,11.91,0,0,1-1.35.25,12.16,12.16,0,0,1-1.33.08,8.09,8.09,0,0,1-4.14-1.12,8.31,8.31,0,0,1-3-2.94,8.09,8.09,0,0,1-1.12-4.14,8.33,8.33,0,0,1,.29-2.19,8.57,8.57,0,0,1,.83-2,8.37,8.37,0,0,1,1.29-1.67,7.66,7.66,0,0,1,1.66-1.28,8.31,8.31,0,0,1,2-.83,7.86,7.86,0,0,1,2.18-.29,8.09,8.09,0,0,1,2.44.36,8.34,8.34,0,0,1,2.15,1,.71.71,0,0,1,.28.29.37.37,0,0,1,0,.4l-1.74,2.52a.92.92,0,0,1-.28.23A.43.43,0,0,1,116.4,66.67Z"/>
          <path class="cls-1" d="M122.47,62.66a.53.53,0,0,1,.13-.36.45.45,0,0,1,.35-.14h10.66a.47.47,0,0,1,.36.14.52.52,0,0,1,.13.38v2.65a.53.53,0,0,1-.13.35.44.44,0,0,1-.37.17h-7v2.66H132a.59.59,0,0,1,.33.1.37.37,0,0,1,.14.32v2.32a.44.44,0,0,1-.12.29.4.4,0,0,1-.34.14h-5.39v2.75h7.22a.44.44,0,0,1,.49.5v2.7a.26.26,0,0,1-.09.19c0,.2-.17.3-.44.3H123a.54.54,0,0,1-.35-.11.47.47,0,0,1-.13-.35Z"/>
          <path class="cls-1" d="M136.61,62.62a.5.5,0,0,1,.12-.33.49.49,0,0,1,.36-.14h3.18a.48.48,0,0,1,.33.13.44.44,0,0,1,.16.34v11.7h5.91a.48.48,0,0,1,.34.13.45.45,0,0,1,.14.35v2.83A.48.48,0,0,1,147,78a.45.45,0,0,1-.35.16h-9.59a.41.41,0,0,1-.47-.47Z"/>
          <path class="cls-1" d="M149.28,62.62a.5.5,0,0,1,.12-.33.49.49,0,0,1,.36-.14h3.18a.48.48,0,0,1,.33.13.44.44,0,0,1,.16.34v11.7h5.91a.48.48,0,0,1,.34.13.45.45,0,0,1,.14.35v2.83a.48.48,0,0,1-.13.33.45.45,0,0,1-.35.16h-9.59a.41.41,0,0,1-.47-.47Z"/>
          <path class="cls-1" d="M161.15,70.16a8.33,8.33,0,0,1,.29-2.19,8.15,8.15,0,0,1,.83-2,8.32,8.32,0,0,1,1.28-1.67,8.18,8.18,0,0,1,1.66-1.28,8.39,8.39,0,0,1,2-.83,8.38,8.38,0,0,1,4.37,0,8.39,8.39,0,0,1,2,.83,8.18,8.18,0,0,1,1.66,1.28A8.37,8.37,0,0,1,176.47,66a9,9,0,0,1,.83,2,8.33,8.33,0,0,1,.29,2.19,8.2,8.2,0,0,1-.29,2.18,8.56,8.56,0,0,1-.83,2A8.31,8.31,0,0,1,175.18,76a9,9,0,0,1-1.66,1.28,8.23,8.23,0,0,1-8.31,0A9,9,0,0,1,163.55,76a8.26,8.26,0,0,1-1.28-1.66,7.76,7.76,0,0,1-.83-2A8.2,8.2,0,0,1,161.15,70.16Zm4.16,0a4.53,4.53,0,0,0,.3,1.66,4.05,4.05,0,0,0,.84,1.35,3.86,3.86,0,0,0,1.28.9,4.22,4.22,0,0,0,3.27,0,3.8,3.8,0,0,0,1.29-.9,4.05,4.05,0,0,0,.84-1.35,4.74,4.74,0,0,0,0-3.32,4.1,4.1,0,0,0-.84-1.36,4.1,4.1,0,0,0-4.56-.92,4.05,4.05,0,0,0-2.12,2.28A4.57,4.57,0,0,0,165.31,70.15Z"/>
        </g>
        <path class="cls-3" d="M27.88,86.85h3.39v4.87a12.56,12.56,0,0,1-1.61.38,13.19,13.19,0,0,1-1.9.13,4.63,4.63,0,0,1-3.54-1.35A5.34,5.34,0,0,1,23,87.09a5.67,5.67,0,0,1,.63-2.73,4.15,4.15,0,0,1,1.8-1.79A5.84,5.84,0,0,1,28.14,82a7.55,7.55,0,0,1,3,.59l-.45,1a6.53,6.53,0,0,0-2.6-.58,3.7,3.7,0,0,0-2.85,1.09,4.18,4.18,0,0,0-1,3,4.29,4.29,0,0,0,1,3.07,3.79,3.79,0,0,0,2.9,1,8.61,8.61,0,0,0,2-.24V87.89H27.88Z"/>
        <path class="cls-3" d="M36.09,87.93v4.16H34.93v-10h2.74a4.32,4.32,0,0,1,2.72.7,2.55,2.55,0,0,1,.88,2.12,2.65,2.65,0,0,1-2,2.68L42,92.09H40.6l-2.42-4.16Zm0-1h1.6a2.77,2.77,0,0,0,1.8-.49A1.85,1.85,0,0,0,40.07,85a1.67,1.67,0,0,0-.59-1.43,3.18,3.18,0,0,0-1.88-.43H36.09Z"/>
        <path class="cls-3" d="M52.39,82.1v6.46a3.52,3.52,0,0,1-1,2.69,4,4,0,0,1-2.84,1,3.77,3.77,0,0,1-2.79-1,3.63,3.63,0,0,1-1-2.7V82.1h1.17v6.52a2.56,2.56,0,0,0,.68,1.92,3.26,3.26,0,0,0,4,0,2.63,2.63,0,0,0,.68-1.94V82.1Z"/>
        <path class="cls-3" d="M62.64,85a2.79,2.79,0,0,1-1,2.33,4.66,4.66,0,0,1-3,.82H57.46v3.93H56.3v-10h2.59Q62.64,82.1,62.64,85Zm-5.18,2.15h1a3.81,3.81,0,0,0,2.23-.5,1.83,1.83,0,0,0,.69-1.6,1.69,1.69,0,0,0-.65-1.47,3.32,3.32,0,0,0-2-.49h-1.3Z"/>
        <path class="cls-3" d="M72.32,85a2.78,2.78,0,0,1-1,2.33,4.66,4.66,0,0,1-3,.82H67.15v3.93H66v-10h2.59C71.08,82.1,72.32,83.07,72.32,85Zm-5.17,2.15h1a3.81,3.81,0,0,0,2.23-.5,1.83,1.83,0,0,0,.69-1.6,1.72,1.72,0,0,0-.65-1.47,3.34,3.34,0,0,0-2-.49h-1.3Z"/>
        <path class="cls-3" d="M84.35,87.08a5.48,5.48,0,0,1-1.21,3.77,4.89,4.89,0,0,1-6.78,0,6.62,6.62,0,0,1,0-7.6,4.36,4.36,0,0,1,3.42-1.34,4.27,4.27,0,0,1,3.36,1.37A5.48,5.48,0,0,1,84.35,87.08Zm-8,0a4.73,4.73,0,0,0,.86,3.08,3.08,3.08,0,0,0,2.51,1,3,3,0,0,0,2.51-1,4.75,4.75,0,0,0,.85-3.08A4.81,4.81,0,0,0,82.28,84a3.05,3.05,0,0,0-2.5-1,3.09,3.09,0,0,0-2.53,1A4.66,4.66,0,0,0,76.39,87.08Z"/>
        <path class="cls-3" d="M97.13,86.85h3.4v4.87a13,13,0,0,1-1.61.38,13.19,13.19,0,0,1-1.9.13,4.6,4.6,0,0,1-3.54-1.35,5.34,5.34,0,0,1-1.26-3.79,5.67,5.67,0,0,1,.62-2.73,4.26,4.26,0,0,1,1.8-1.79A5.91,5.91,0,0,1,97.4,82a7.58,7.58,0,0,1,3,.59l-.45,1A6.54,6.54,0,0,0,97.32,83a3.73,3.73,0,0,0-2.85,1.09,4.22,4.22,0,0,0-1,3,4.34,4.34,0,0,0,1,3.07,3.81,3.81,0,0,0,2.91,1,8.61,8.61,0,0,0,2-.24V87.89H97.13Z"/>
        <path class="cls-3" d="M104.19,92.09v-10h1.16v10Z"/>
        <path class="cls-3" d="M118,87.08a5.48,5.48,0,0,1-1.22,3.77,4.25,4.25,0,0,1-3.37,1.38A4.33,4.33,0,0,1,110,90.88a5.54,5.54,0,0,1-1.2-3.81A5.46,5.46,0,0,1,110,83.28a4.36,4.36,0,0,1,3.41-1.34,4.28,4.28,0,0,1,3.37,1.37A5.52,5.52,0,0,1,118,87.08Zm-8,0a4.73,4.73,0,0,0,.87,3.08,3.53,3.53,0,0,0,5,0A6,6,0,0,0,116,84a3,3,0,0,0-2.5-1,3.07,3.07,0,0,0-2.52,1A4.66,4.66,0,0,0,110.06,87.08Z"/>
        <path class="cls-3" d="M127.22,82.1h1.25l-3.6,10h-1.15l-3.58-10h1.23l2.3,6.46a20.73,20.73,0,0,1,.63,2.17,16.72,16.72,0,0,1,.64-2.21Z"/>
        <path class="cls-3" d="M137.39,92.09l-1.24-3.18h-4l-1.23,3.18h-1.18l4-10h1l3.93,10Zm-1.61-4.22-1.16-3.1c-.15-.39-.3-.87-.46-1.44a14.76,14.76,0,0,1-.43,1.44l-1.18,3.1Z"/>
        <path class="cls-3" d="M149,92.09h-1.32l-5.46-8.39h-.06c.07,1,.11,1.89.11,2.71v5.68h-1.07v-10h1.31L148,90.45h0c0-.12,0-.52-.06-1.19s0-1.14,0-1.43V82.1H149Z"/>
        <path class="cls-3" d="M153,92.09v-10h1.16v10Z"/>
      </g>
    </g>
  </g>
</svg>
